<?xml version="1.0"?>
<svg xmlns="http://www.w3.org/2000/svg" viewBox="0 0 50 50">
    <path d="M 12 2 C 8.691 2 6 4.691 6 8 L 6 42.417969 C 6 45.495969 8.691 48 12 48 L 44 48 L 44 46 L 12 46 C 9.832 46 8 44.359969 8 42.417969 C 8 40.501969 9.757 39 12 39 L 44 39 L 44 2 L 12 2 z M 19.285156 13 L 21.714844 13 L 27 28.419922 L 27 29 L 25 29 L 25 28.753906 L 24.056641 26 L 16.943359 26 L 16 28.753906 L 16 29 L 14 29 L 14 28.419922 L 19.285156 13 z M 20.5 15.625 L 17.628906 24 L 23.371094 24 L 20.5 15.625 z M 32 17 C 33.794 17 35 18.406 35 20.5 L 35 26 C 35 26.552 35.448 27 36 27 L 36 29 C 35.229 29 34.532 28.699703 34 28.220703 C 33.468 28.700703 32.771 29 32 29 L 31 29 C 29.346 29 28 27.654 28 26 L 28 24 C 28 22.346 29.346 21 31 21 L 32 21 C 32.352 21 32.686 21.071594 33 21.183594 L 33 20.5 C 33 19.815 32.826 19 32 19 C 31.506 19 31 19.119 31 20 L 29 20 C 29 18.206 30.206 17 32 17 z M 31 23 C 30.448 23 30 23.448 30 24 L 30 26 C 30 26.552 30.448 27 31 27 L 32 27 C 32.552 27 33 26.552 33 26 L 33 24 C 33 23.448 32.552 23 32 23 L 31 23 z"/>
</svg>
